Coordinates
version=1
nRows=22
nColumns=24
inDegrees=yes

Units are S.I. units (second, meters, Newtons, ...)
Angles are in degrees.

endheader
time	pelvis_tilt	pelvis_list	pelvis_rotation	pelvis_tx	pelvis_ty	pelvis_tz	hip_flexion_r	hip_adduction_r	hip_rotation_r	knee_angle_r	ankle_angle_r	subtalar_angle_r	mtp_angle_r	hip_flexion_l	hip_adduction_l	hip_rotation_l	knee_angle_l	ankle_angle_l	subtalar_angle_l	mtp_angle_l	lumbar_extension	lumbar_bending	lumbar_rotation
      0.97483333	     -3.42454701	      2.31395470	      0.87421585	     -0.15109190	      1.00414981	      0.31897906	    -12.95020300	      0.60098093	     -1.80004083	     -7.97658332	     10.99506441	     -3.63261592	     -3.12518963	     19.07011892	      4.78085906	      4.80423096	      4.13092259	      2.57278371	     -7.03047120	     -4.71640072	     -9.43815352	      3.52975243	      4.85213717
      0.97900000	     -3.39096021	      2.39098749	      0.86094411	     -0.14532752	      1.00343266	      0.31861138	    -13.06746961	      0.45495302	     -2.07016380	     -8.53411982	     11.17240754	     -3.09828024	     -2.80316389	     18.99138962	      4.95792482	      4.97263216	      4.22358404	      2.53416319	     -7.08683980	     -4.63553241	     -9.43163337	      3.45957731	      4.77057636
      0.98316667	     -3.42916399	      2.44334313	      0.85605759	     -0.13956695	      1.00264510	      0.31826924	    -13.10672261	      0.34578335	     -2.23010825	     -9.08299400	     11.22538454	     -2.80250341	     -2.33855424	     19.01058419	      5.11069457	      5.19882301	      4.19597575	      2.48193466	     -7.20816698	     -4.52530029	     -9.34559751	      3.41489305	      4.70660195
      0.98733333	     -3.37930991	      2.50492051	      0.85365941	     -0.13376448	      1.00201325	      0.31796206	    -13.27368749	      0.23759112	     -2.31810561	     -9.54144984	     11.01298265	     -2.77352227	      3.34079497	     18.93594399	      5.27194237	      5.46520647	      4.09084254	      2.37449302	     -7.46684070	     -3.28479047	     -9.36927401	      3.33103531	      4.65470527
      0.99150000	     -3.37806528	      2.59534400	      0.86170082	     -0.12795335	      1.00132154	      0.31761849	    -13.32502939	      0.08941365	     -2.49007689	    -10.15941998	     11.05835846	     -2.51430973	      3.39639997	     18.94704288	      5.46972176	      5.63681827	      3.84741879	      2.28618440	     -7.49422272	     -3.29062301	     -9.32323517	      3.21491388	      4.58014445
      0.99566667	     -3.35993065	      2.67541098	      0.87338534	     -0.12213283	      1.00067470	      0.31725215	    -13.38059404	     -0.05016386	     -2.66117457	    -10.79768132	     11.01995924	     -2.24995817	      3.49114606	     18.94000330	      5.66008286	      5.89273670	      3.53870531	      2.15852338	     -7.70646553	     -3.28891783	     -9.29786276	      3.13024958	      4.50083781
      0.99983333	     -3.32700673	      2.77917909	      0.89238003	     -0.11628725	      1.00007063	      0.31686319	    -13.43973194	     -0.21707571	     -2.83911546	    -11.46211310	     10.97095121	     -1.97048102	      3.64758111	     18.92128721	      5.88019430	      6.17836915	      3.16127717	      1.94369589	     -8.02197777	     -3.27800839	     -9.29877572	      3.03072304	      4.40256997
      1.00400000	     -3.29629809	      2.87659525	      0.92042197	     -0.11042464	      0.99947828	      0.31647079	    -13.47383058	     -0.37592307	     -3.02355023	    -12.17098737	     10.88315805	     -1.72057660	      3.86594626	     18.91458379	      6.09648977	      6.48517571	      2.71012902	      1.68889468	     -8.40256172	     -3.25518850	     -9.28257157	      2.91808844	      4.30451176
      1.00816667	     -3.28256138	      2.98141416	      0.95733953	     -0.10455199	      0.99888260	      0.31605726	    -13.46959669	     -0.54388112	     -3.20332125	    -12.91811677	     10.75427743	     -1.49336151	      4.12843886	     18.93768504	      6.32583822	      6.80519663	      2.18728132	      1.39605116	     -8.81349951	     -3.22393619	     -9.25057224	      2.81034663	      4.19967780
      1.01233333	     -3.24827347	      3.08486239	      1.00127858	     -0.09866943	      0.99832927	      0.31562952	    -13.46695558	     -0.71202627	     -3.39991915	    -13.70119655	     10.59094910	     -1.26321057	      4.47980118	     18.94835805	      6.55786693	      7.13477597	      1.60327654	      1.05391045	     -9.29720566	     -3.17882590	     -9.23980205	      2.69629522	      4.07927768
      1.01650000	     -3.22272976	      3.20165490	      1.05263506	     -0.09277071	      0.99779121	      0.31518467	    -13.43097834	     -0.89606922	     -3.59311418	    -14.53118426	     10.39324056	     -1.02811300	      4.95268588	     18.97121524	      6.80776989	      7.47456601	      0.97663409	      0.65956668	     -9.83796099	     -3.11844154	     -9.22272259	      2.57186466	      3.95662810
      1.02066667	     -3.18614353	      3.30432107	      1.10848207	     -0.08686971	      0.99728834	      0.31474655	    -13.37909863	     -1.06545321	     -3.79448691	    -15.40706099	     10.12194648	     -0.85352378	      5.46914468	     18.99473144	      7.04422048	      7.78376219	      0.29679586	      0.26102567	    -10.35324567	     -3.05579213	     -9.20217254	      2.44285925	      3.83389783
      1.02483333	     -3.14880393	      3.39303094	      1.15834296	     -0.08095979	      0.99682978	      0.31433961	    -13.33649245	     -1.20855295	     -3.88906784	    -16.22623947	      9.60735236	     -0.98168082	     12.64455581	     19.02933139	      7.26501515	      8.09110922	     -0.43625277	     -0.16254030	    -10.93187162	     -2.21279764	     -9.20314483	      2.31733620	      3.81331406
      1.02900000	     -3.08680570	      3.53154238	      1.21965664	     -0.07503958	      0.99639913	      0.31384973	    -13.24457089	     -1.43637862	     -4.16732191	    -17.23098725	      9.28984406	     -0.65726496	     12.72939839	     19.05618393	      7.54395079	      8.27920665	     -1.22858376	     -0.52757628	    -11.30058853	     -2.22358493	     -9.22115105	      2.17821751	      3.61340793
      1.03316667	     -3.06198303	      3.63310876	      1.28096912	     -0.06914625	      0.99594514	      0.31337820	    -13.08940835	     -1.61817277	     -4.36600403	    -18.26025853	      8.88734605	     -0.48322039	     12.90000474	     19.12031098	      7.78601656	      8.55168019	     -2.03085522	     -0.95896309	    -11.86279975	     -2.23406943	     -9.19663012	      2.06498868	      3.48488041
      1.03733333	     -2.97503767	      3.74821753	      1.31974444	     -0.06323023	      0.99562782	      0.31293475	    -12.98270273	     -1.81998935	     -4.53527858	    -19.30334617	      8.38912808	     -0.33345460	     13.49187682	     19.09164540	      8.03586843	      8.86015740	     -2.79813694	     -1.43177465	    -12.61286843	     -2.25360440	     -9.25233313	      1.93371265	      3.33648289
      1.04150000	     -2.97242938	      3.83976108	      1.39144878	     -0.05736476	      0.99519387	      0.31245143	    -12.72948427	     -2.00216934	     -4.75281918	    -20.45200347	      7.87325898	     -0.19075765	     13.80223017	     19.21466825	      8.26916378	      9.01388065	     -3.69667841	     -1.79201382	    -12.97492809	     -2.26680964	     -9.20062293	      1.81853032	      3.24421647
      1.04566667	     -2.92128144	      3.94324380	      1.43147651	     -0.05148584	      0.99487708	      0.31200700	    -12.51162188	     -2.20095901	     -4.90659591	    -21.59022312	      7.13196815	     -0.24781499	     19.96159700	     19.24861615	      8.50724463	      9.25418449	     -4.53683972	     -2.17885862	    -13.57084586	     -2.47916748	     -9.23602824	      1.67974783	      3.22932894
      1.04983333	     -2.86291476	      4.06153405	      1.47262791	     -0.04559493	      0.99458201	      0.31154846	    -12.25232708	     -2.43575427	     -5.12752652	    -22.83393894	      6.46003605	     -0.06281836	     20.03006339	     19.29274948	      8.75513500	      9.35024324	     -5.42197226	     -2.42218146	    -13.87582150	     -2.48714348	     -9.23530152	      1.55787438	      3.04465626
      1.05400000	     -2.82936606	      4.15971428	      1.50358184	     -0.03975109	      0.99427991	      0.31111318	    -11.92320228	     -2.65256816	     -5.30172303	    -24.13473428	      5.72091836	      0.04777097	     20.16498981	     19.36166974	      8.98067610	      9.48215123	     -6.31046450	     -2.65607087	    -14.28556806	     -2.50299844	     -9.23078309	      1.43900199	      2.93291171
      1.05816667	     -2.78367076	      4.26516547	      1.52049157	     -0.03395249	      0.99401804	      0.31066801	    -11.56837472	     -2.88871215	     -5.45244019	    -25.48711360	      4.95170480	      0.16852118	     20.46818434	     19.42236996	      9.21506836	      9.61267282	     -7.21556930	     -2.88578412	    -14.76439752	     -2.53941838	     -9.25909858	      1.34244023	      2.82477497
      1.06233333	     -2.69931262	      4.38451431	      1.51483161	     -0.02812236	      0.99384850	      0.31027223	    -11.22211724	     -3.15285388	     -5.61306496	    -26.86655214	      3.97064697	      0.14313418	     26.02470464	     19.40534517	      9.44971168	      9.73178327	     -8.05672586	     -3.00288488	    -15.16940741	     -3.19597235	     -9.32345142	      1.18114643	      2.80737686
